<mxfile host="app.diagrams.net" modified="2023-07-20T10:25:42.926Z" agent="Mozilla/5.0 (X11; Linux x86_64) AppleWebKit/537.36 (KHTML, like Gecko) Chrome/114.0.0.0 Safari/537.36" etag="57cAKTf1gKv7fIKA79Dm" version="21.6.3" type="device">
  <diagram name="Page-1" id="DPZLZ2SSeJs06j5T2vBG">
    <mxGraphModel dx="760" dy="451" grid="1" gridSize="10" guides="1" tooltips="1" connect="1" arrows="1" fold="1" page="1" pageScale="1" pageWidth="850" pageHeight="1100" math="0" shadow="0">
      <root>
        <mxCell id="0" />
        <mxCell id="1" parent="0" />
        <mxCell id="5-EurzYL1BtBVcS3Mzic-153" value="" style="shape=cylinder3;whiteSpace=wrap;html=1;boundedLbl=1;backgroundOutline=1;size=15;fillColor=#ffe6cc;strokeColor=#d79b00;" vertex="1" parent="1">
          <mxGeometry x="50" y="1570" width="750" height="220" as="geometry" />
        </mxCell>
        <mxCell id="5-EurzYL1BtBVcS3Mzic-2" value="Link data" style="swimlane;whiteSpace=wrap;html=1;fillColor=#f5f5f5;fontColor=#333333;strokeColor=#666666;" vertex="1" collapsed="1" parent="1">
          <mxGeometry x="160" y="40" width="90" height="30" as="geometry">
            <mxRectangle x="40" y="120" width="767.5" height="3020" as="alternateBounds" />
          </mxGeometry>
        </mxCell>
        <mxCell id="5-EurzYL1BtBVcS3Mzic-14" value="" style="rounded=0;whiteSpace=wrap;html=1;fillColor=#f5f5f5;fontColor=#333333;strokeColor=#666666;" vertex="1" parent="5-EurzYL1BtBVcS3Mzic-2">
          <mxGeometry x="17.5" y="2940" width="730" height="70" as="geometry" />
        </mxCell>
        <mxCell id="5-EurzYL1BtBVcS3Mzic-3" value="" style="shape=process;whiteSpace=wrap;html=1;backgroundOutline=1;fillColor=#dae8fc;strokeColor=#6c8ebf;" vertex="1" parent="5-EurzYL1BtBVcS3Mzic-2">
          <mxGeometry x="20" y="40" width="110" height="40" as="geometry" />
        </mxCell>
        <mxCell id="5-EurzYL1BtBVcS3Mzic-4" value="" style="rounded=0;whiteSpace=wrap;html=1;fillColor=#f8cecc;strokeColor=#b85450;" vertex="1" parent="5-EurzYL1BtBVcS3Mzic-2">
          <mxGeometry x="195" y="40" width="380" height="40" as="geometry" />
        </mxCell>
        <mxCell id="5-EurzYL1BtBVcS3Mzic-12" value="" style="rounded=0;whiteSpace=wrap;html=1;fillColor=#f8cecc;strokeColor=#b85450;" vertex="1" parent="5-EurzYL1BtBVcS3Mzic-2">
          <mxGeometry x="347.5" y="2955" width="380" height="40" as="geometry" />
        </mxCell>
        <mxCell id="5-EurzYL1BtBVcS3Mzic-13" value="Copyright" style="text;html=1;strokeColor=none;fillColor=none;align=center;verticalAlign=middle;whiteSpace=wrap;rounded=0;" vertex="1" parent="5-EurzYL1BtBVcS3Mzic-2">
          <mxGeometry x="27.5" y="2960" width="290" height="30" as="geometry" />
        </mxCell>
        <mxCell id="5-EurzYL1BtBVcS3Mzic-15" value="" style="rounded=0;whiteSpace=wrap;html=1;fillColor=#f5f5f5;fontColor=#333333;strokeColor=#666666;" vertex="1" parent="5-EurzYL1BtBVcS3Mzic-2">
          <mxGeometry x="17.5" y="2620" width="730" height="290" as="geometry" />
        </mxCell>
        <mxCell id="5-EurzYL1BtBVcS3Mzic-16" value="" style="rounded=0;whiteSpace=wrap;html=1;fillColor=#e1d5e7;strokeColor=#9673a6;" vertex="1" parent="5-EurzYL1BtBVcS3Mzic-2">
          <mxGeometry x="37.5" y="2670" width="690" height="230" as="geometry" />
        </mxCell>
        <mxCell id="5-EurzYL1BtBVcS3Mzic-17" value="Patrocionadores" style="text;html=1;strokeColor=none;fillColor=none;align=center;verticalAlign=middle;whiteSpace=wrap;rounded=0;" vertex="1" parent="5-EurzYL1BtBVcS3Mzic-2">
          <mxGeometry x="37.5" y="2630" width="100" height="30" as="geometry" />
        </mxCell>
        <mxCell id="5-EurzYL1BtBVcS3Mzic-18" value="" style="ellipse;whiteSpace=wrap;html=1;aspect=fixed;fillColor=#f8cecc;strokeColor=#b85450;" vertex="1" parent="5-EurzYL1BtBVcS3Mzic-2">
          <mxGeometry x="67.5" y="2690" width="80" height="80" as="geometry" />
        </mxCell>
        <mxCell id="5-EurzYL1BtBVcS3Mzic-23" value="" style="rounded=0;whiteSpace=wrap;html=1;fillColor=#f5f5f5;fontColor=#333333;strokeColor=#666666;" vertex="1" parent="5-EurzYL1BtBVcS3Mzic-2">
          <mxGeometry x="12.5" y="2300" width="730" height="290" as="geometry" />
        </mxCell>
        <mxCell id="5-EurzYL1BtBVcS3Mzic-24" value="" style="rounded=0;whiteSpace=wrap;html=1;fillColor=#e1d5e7;strokeColor=#9673a6;" vertex="1" parent="5-EurzYL1BtBVcS3Mzic-2">
          <mxGeometry x="32.5" y="2350" width="690" height="230" as="geometry" />
        </mxCell>
        <mxCell id="5-EurzYL1BtBVcS3Mzic-25" value="Colaboradores" style="text;html=1;strokeColor=none;fillColor=none;align=center;verticalAlign=middle;whiteSpace=wrap;rounded=0;" vertex="1" parent="5-EurzYL1BtBVcS3Mzic-2">
          <mxGeometry x="32.5" y="2310" width="100" height="30" as="geometry" />
        </mxCell>
        <mxCell id="5-EurzYL1BtBVcS3Mzic-28" value="" style="rounded=0;whiteSpace=wrap;html=1;fillColor=#f5f5f5;fontColor=#333333;strokeColor=#666666;" vertex="1" parent="5-EurzYL1BtBVcS3Mzic-2">
          <mxGeometry x="57.5" y="2360" width="200" height="200" as="geometry" />
        </mxCell>
        <mxCell id="5-EurzYL1BtBVcS3Mzic-26" value="" style="ellipse;whiteSpace=wrap;html=1;aspect=fixed;fillColor=#f8cecc;strokeColor=#b85450;" vertex="1" parent="5-EurzYL1BtBVcS3Mzic-2">
          <mxGeometry x="117.5" y="2380" width="80" height="80" as="geometry" />
        </mxCell>
        <mxCell id="5-EurzYL1BtBVcS3Mzic-27" value="(Name)" style="text;html=1;strokeColor=none;fillColor=none;align=center;verticalAlign=middle;whiteSpace=wrap;rounded=0;" vertex="1" parent="5-EurzYL1BtBVcS3Mzic-2">
          <mxGeometry x="107.5" y="2460" width="100" height="30" as="geometry" />
        </mxCell>
        <mxCell id="5-EurzYL1BtBVcS3Mzic-29" value="he/she" style="text;html=1;strokeColor=none;fillColor=none;align=center;verticalAlign=middle;whiteSpace=wrap;rounded=0;" vertex="1" parent="5-EurzYL1BtBVcS3Mzic-2">
          <mxGeometry x="107.5" y="2480" width="100" height="30" as="geometry" />
        </mxCell>
        <mxCell id="5-EurzYL1BtBVcS3Mzic-30" value="Software dev | Pereaira, Colombia" style="text;html=1;strokeColor=none;fillColor=none;align=center;verticalAlign=middle;whiteSpace=wrap;rounded=0;" vertex="1" parent="5-EurzYL1BtBVcS3Mzic-2">
          <mxGeometry x="62.5" y="2495" width="190" height="30" as="geometry" />
        </mxCell>
        <mxCell id="5-EurzYL1BtBVcS3Mzic-31" value="Some text about this person" style="text;html=1;strokeColor=none;fillColor=none;align=center;verticalAlign=middle;whiteSpace=wrap;rounded=0;" vertex="1" parent="5-EurzYL1BtBVcS3Mzic-2">
          <mxGeometry x="62.5" y="2525" width="190" height="30" as="geometry" />
        </mxCell>
        <mxCell id="5-EurzYL1BtBVcS3Mzic-33" value="" style="rounded=0;whiteSpace=wrap;html=1;fillColor=#f5f5f5;fontColor=#333333;strokeColor=#666666;" vertex="1" parent="5-EurzYL1BtBVcS3Mzic-2">
          <mxGeometry x="12.5" y="1990" width="730" height="300" as="geometry" />
        </mxCell>
        <mxCell id="5-EurzYL1BtBVcS3Mzic-34" value="" style="rounded=0;whiteSpace=wrap;html=1;fillColor=#e1d5e7;strokeColor=#9673a6;" vertex="1" parent="5-EurzYL1BtBVcS3Mzic-2">
          <mxGeometry x="32.5" y="2040" width="690" height="240" as="geometry" />
        </mxCell>
        <mxCell id="5-EurzYL1BtBVcS3Mzic-35" value="Ganadores" style="text;html=1;strokeColor=none;fillColor=none;align=center;verticalAlign=middle;whiteSpace=wrap;rounded=0;" vertex="1" parent="5-EurzYL1BtBVcS3Mzic-2">
          <mxGeometry x="32.5" y="2000" width="100" height="30" as="geometry" />
        </mxCell>
        <mxCell id="5-EurzYL1BtBVcS3Mzic-36" value="" style="rounded=0;whiteSpace=wrap;html=1;fillColor=#f5f5f5;fontColor=#333333;strokeColor=#666666;" vertex="1" parent="5-EurzYL1BtBVcS3Mzic-2">
          <mxGeometry x="52.5" y="2040" width="200" height="200" as="geometry" />
        </mxCell>
        <mxCell id="5-EurzYL1BtBVcS3Mzic-37" value="" style="ellipse;whiteSpace=wrap;html=1;aspect=fixed;fillColor=#dae8fc;strokeColor=#6c8ebf;" vertex="1" parent="5-EurzYL1BtBVcS3Mzic-2">
          <mxGeometry x="112.5" y="2060" width="80" height="80" as="geometry" />
        </mxCell>
        <mxCell id="5-EurzYL1BtBVcS3Mzic-38" value="(Name)" style="text;html=1;strokeColor=none;fillColor=none;align=center;verticalAlign=middle;whiteSpace=wrap;rounded=0;" vertex="1" parent="5-EurzYL1BtBVcS3Mzic-2">
          <mxGeometry x="102.5" y="2140" width="100" height="30" as="geometry" />
        </mxCell>
        <mxCell id="5-EurzYL1BtBVcS3Mzic-39" value="Proyect" style="text;html=1;strokeColor=none;fillColor=none;align=center;verticalAlign=middle;whiteSpace=wrap;rounded=0;" vertex="1" parent="5-EurzYL1BtBVcS3Mzic-2">
          <mxGeometry x="102.5" y="2160" width="100" height="30" as="geometry" />
        </mxCell>
        <mxCell id="5-EurzYL1BtBVcS3Mzic-40" value="Position" style="text;html=1;strokeColor=none;fillColor=none;align=center;verticalAlign=middle;whiteSpace=wrap;rounded=0;" vertex="1" parent="5-EurzYL1BtBVcS3Mzic-2">
          <mxGeometry x="57.5" y="2175" width="190" height="30" as="geometry" />
        </mxCell>
        <mxCell id="5-EurzYL1BtBVcS3Mzic-41" value="Some text about this team" style="text;html=1;strokeColor=none;fillColor=none;align=center;verticalAlign=middle;whiteSpace=wrap;rounded=0;" vertex="1" parent="5-EurzYL1BtBVcS3Mzic-2">
          <mxGeometry x="57.5" y="2205" width="190" height="30" as="geometry" />
        </mxCell>
        <mxCell id="5-EurzYL1BtBVcS3Mzic-42" value="" style="shape=cylinder3;whiteSpace=wrap;html=1;boundedLbl=1;backgroundOutline=1;size=15;fillColor=#ffe6cc;strokeColor=#d79b00;" vertex="1" parent="5-EurzYL1BtBVcS3Mzic-2">
          <mxGeometry x="57.5" y="2240" width="185" height="40" as="geometry" />
        </mxCell>
        <mxCell id="5-EurzYL1BtBVcS3Mzic-49" value="" style="shape=hexagon;perimeter=hexagonPerimeter2;whiteSpace=wrap;html=1;fixedSize=1;fillColor=#f8cecc;strokeColor=#b85450;" vertex="1" parent="5-EurzYL1BtBVcS3Mzic-2">
          <mxGeometry x="295" y="280" width="120" height="80" as="geometry" />
        </mxCell>
        <mxCell id="5-EurzYL1BtBVcS3Mzic-50" value="Link data" style="text;html=1;strokeColor=none;fillColor=none;align=center;verticalAlign=middle;whiteSpace=wrap;rounded=0;" vertex="1" parent="5-EurzYL1BtBVcS3Mzic-2">
          <mxGeometry x="105" y="110" width="500" height="30" as="geometry" />
        </mxCell>
        <mxCell id="5-EurzYL1BtBVcS3Mzic-82" value="" style="shape=process;whiteSpace=wrap;html=1;backgroundOutline=1;fillColor=#dae8fc;strokeColor=#6c8ebf;" vertex="1" parent="5-EurzYL1BtBVcS3Mzic-2">
          <mxGeometry x="30" y="140" width="700" height="130" as="geometry" />
        </mxCell>
        <mxCell id="5-EurzYL1BtBVcS3Mzic-83" value="" style="rounded=0;whiteSpace=wrap;html=1;fillColor=#f5f5f5;fontColor=#333333;strokeColor=#666666;" vertex="1" parent="5-EurzYL1BtBVcS3Mzic-2">
          <mxGeometry x="15" y="380" width="730" height="100" as="geometry" />
        </mxCell>
        <mxCell id="5-EurzYL1BtBVcS3Mzic-85" value="" style="rounded=0;whiteSpace=wrap;html=1;fillColor=#f5f5f5;fontColor=#333333;strokeColor=#666666;" vertex="1" parent="5-EurzYL1BtBVcS3Mzic-2">
          <mxGeometry x="12.5" y="1680" width="730" height="250" as="geometry" />
        </mxCell>
        <mxCell id="5-EurzYL1BtBVcS3Mzic-86" value="" style="rounded=0;whiteSpace=wrap;html=1;fillColor=#e1d5e7;strokeColor=#9673a6;" vertex="1" parent="5-EurzYL1BtBVcS3Mzic-2">
          <mxGeometry x="32.5" y="1710" width="695" height="210" as="geometry" />
        </mxCell>
        <mxCell id="5-EurzYL1BtBVcS3Mzic-90" value="Criterios y registro" style="text;html=1;strokeColor=none;fillColor=none;align=center;verticalAlign=middle;whiteSpace=wrap;rounded=0;" vertex="1" parent="5-EurzYL1BtBVcS3Mzic-2">
          <mxGeometry x="27.5" y="1680" width="100" height="30" as="geometry" />
        </mxCell>
        <mxCell id="5-EurzYL1BtBVcS3Mzic-91" value="" style="rounded=0;whiteSpace=wrap;html=1;fillColor=#f5f5f5;fontColor=#333333;strokeColor=#666666;" vertex="1" parent="5-EurzYL1BtBVcS3Mzic-2">
          <mxGeometry x="42.5" y="1715" width="200" height="200" as="geometry" />
        </mxCell>
        <mxCell id="5-EurzYL1BtBVcS3Mzic-89" value="" style="ellipse;whiteSpace=wrap;html=1;aspect=fixed;fillColor=#dae8fc;strokeColor=#6c8ebf;" vertex="1" parent="5-EurzYL1BtBVcS3Mzic-2">
          <mxGeometry x="97.5" y="1730" width="80" height="80" as="geometry" />
        </mxCell>
        <mxCell id="5-EurzYL1BtBVcS3Mzic-92" value="Title" style="text;html=1;strokeColor=none;fillColor=none;align=center;verticalAlign=middle;whiteSpace=wrap;rounded=0;" vertex="1" parent="5-EurzYL1BtBVcS3Mzic-2">
          <mxGeometry x="107.5" y="1810" width="60" height="30" as="geometry" />
        </mxCell>
        <mxCell id="5-EurzYL1BtBVcS3Mzic-93" value="Some random text about this" style="text;html=1;strokeColor=none;fillColor=none;align=center;verticalAlign=middle;whiteSpace=wrap;rounded=0;" vertex="1" parent="5-EurzYL1BtBVcS3Mzic-2">
          <mxGeometry x="57.5" y="1840" width="180" height="70" as="geometry" />
        </mxCell>
        <mxCell id="5-EurzYL1BtBVcS3Mzic-94" value="" style="shape=hexagon;perimeter=hexagonPerimeter2;whiteSpace=wrap;html=1;fixedSize=1;fillColor=#f8cecc;strokeColor=#b85450;" vertex="1" parent="5-EurzYL1BtBVcS3Mzic-2">
          <mxGeometry x="327.5" y="1940" width="120" height="30" as="geometry" />
        </mxCell>
        <mxCell id="5-EurzYL1BtBVcS3Mzic-95" value="" style="rounded=0;whiteSpace=wrap;html=1;fillColor=#f5f5f5;fontColor=#333333;strokeColor=#666666;" vertex="1" parent="5-EurzYL1BtBVcS3Mzic-2">
          <mxGeometry x="12.5" y="520" width="730" height="280" as="geometry" />
        </mxCell>
        <mxCell id="5-EurzYL1BtBVcS3Mzic-97" value="" style="rounded=0;whiteSpace=wrap;html=1;fillColor=#f5f5f5;fontColor=#333333;strokeColor=#666666;" vertex="1" parent="5-EurzYL1BtBVcS3Mzic-2">
          <mxGeometry x="150" y="540" width="560" height="70" as="geometry" />
        </mxCell>
        <mxCell id="5-EurzYL1BtBVcS3Mzic-96" value="Link data culture" style="text;html=1;strokeColor=none;fillColor=none;align=center;verticalAlign=middle;whiteSpace=wrap;rounded=0;" vertex="1" parent="5-EurzYL1BtBVcS3Mzic-2">
          <mxGeometry x="270" y="540" width="350" height="30" as="geometry" />
        </mxCell>
        <mxCell id="5-EurzYL1BtBVcS3Mzic-98" value="Some random text" style="text;html=1;strokeColor=none;fillColor=none;align=center;verticalAlign=middle;whiteSpace=wrap;rounded=0;" vertex="1" parent="5-EurzYL1BtBVcS3Mzic-2">
          <mxGeometry x="160" y="570" width="562.5" height="30" as="geometry" />
        </mxCell>
        <mxCell id="5-EurzYL1BtBVcS3Mzic-99" value="" style="rounded=0;whiteSpace=wrap;html=1;fillColor=#e1d5e7;strokeColor=#9673a6;" vertex="1" parent="5-EurzYL1BtBVcS3Mzic-2">
          <mxGeometry x="150" y="630" width="580" height="150" as="geometry" />
        </mxCell>
        <mxCell id="5-EurzYL1BtBVcS3Mzic-100" value="" style="rounded=0;whiteSpace=wrap;html=1;fillColor=#f5f5f5;fontColor=#333333;strokeColor=#666666;" vertex="1" parent="5-EurzYL1BtBVcS3Mzic-2">
          <mxGeometry x="155" y="660" width="200" height="100" as="geometry" />
        </mxCell>
        <mxCell id="5-EurzYL1BtBVcS3Mzic-101" value="" style="ellipse;whiteSpace=wrap;html=1;aspect=fixed;fillColor=#dae8fc;strokeColor=#6c8ebf;" vertex="1" parent="5-EurzYL1BtBVcS3Mzic-2">
          <mxGeometry x="165" y="662.5" width="35" height="35" as="geometry" />
        </mxCell>
        <mxCell id="5-EurzYL1BtBVcS3Mzic-102" value="Title" style="text;html=1;strokeColor=none;fillColor=none;align=center;verticalAlign=middle;whiteSpace=wrap;rounded=0;" vertex="1" parent="5-EurzYL1BtBVcS3Mzic-2">
          <mxGeometry x="200" y="665" width="60" height="30" as="geometry" />
        </mxCell>
        <mxCell id="5-EurzYL1BtBVcS3Mzic-103" value="Some random text about this" style="text;html=1;strokeColor=none;fillColor=none;align=center;verticalAlign=middle;whiteSpace=wrap;rounded=0;" vertex="1" parent="5-EurzYL1BtBVcS3Mzic-2">
          <mxGeometry x="165" y="697.5" width="180" height="70" as="geometry" />
        </mxCell>
        <mxCell id="5-EurzYL1BtBVcS3Mzic-104" value="" style="shape=process;whiteSpace=wrap;html=1;backgroundOutline=1;fillColor=#dae8fc;strokeColor=#6c8ebf;" vertex="1" parent="5-EurzYL1BtBVcS3Mzic-2">
          <mxGeometry x="31.25" y="830" width="198.75" height="260" as="geometry" />
        </mxCell>
        <mxCell id="5-EurzYL1BtBVcS3Mzic-105" value="" style="rounded=0;whiteSpace=wrap;html=1;fillColor=#f5f5f5;fontColor=#333333;strokeColor=#666666;" vertex="1" parent="5-EurzYL1BtBVcS3Mzic-2">
          <mxGeometry x="277.5" y="830" width="452.5" height="260" as="geometry" />
        </mxCell>
        <mxCell id="5-EurzYL1BtBVcS3Mzic-106" value="" style="rounded=0;whiteSpace=wrap;html=1;fillColor=#e1d5e7;strokeColor=#9673a6;" vertex="1" parent="5-EurzYL1BtBVcS3Mzic-2">
          <mxGeometry x="290" y="990" width="430" height="78.75" as="geometry" />
        </mxCell>
        <mxCell id="5-EurzYL1BtBVcS3Mzic-108" value="" style="rounded=0;whiteSpace=wrap;html=1;fillColor=#f5f5f5;fontColor=#333333;strokeColor=#666666;" vertex="1" parent="5-EurzYL1BtBVcS3Mzic-2">
          <mxGeometry x="300" y="1000" width="200" height="60" as="geometry" />
        </mxCell>
        <mxCell id="5-EurzYL1BtBVcS3Mzic-109" value="" style="ellipse;whiteSpace=wrap;html=1;aspect=fixed;fillColor=#dae8fc;strokeColor=#6c8ebf;" vertex="1" parent="5-EurzYL1BtBVcS3Mzic-2">
          <mxGeometry x="310" y="1002.5" width="35" height="35" as="geometry" />
        </mxCell>
        <mxCell id="5-EurzYL1BtBVcS3Mzic-110" value="Title" style="text;html=1;strokeColor=none;fillColor=none;align=center;verticalAlign=middle;whiteSpace=wrap;rounded=0;" vertex="1" parent="5-EurzYL1BtBVcS3Mzic-2">
          <mxGeometry x="345" y="1005" width="60" height="30" as="geometry" />
        </mxCell>
        <mxCell id="5-EurzYL1BtBVcS3Mzic-111" value="Some random text about this" style="text;html=1;strokeColor=none;fillColor=none;align=center;verticalAlign=middle;whiteSpace=wrap;rounded=0;" vertex="1" parent="5-EurzYL1BtBVcS3Mzic-2">
          <mxGeometry x="310" y="1037.5" width="180" height="22.5" as="geometry" />
        </mxCell>
        <mxCell id="5-EurzYL1BtBVcS3Mzic-112" value="Rewards" style="text;html=1;strokeColor=none;fillColor=none;align=center;verticalAlign=middle;whiteSpace=wrap;rounded=0;" vertex="1" parent="5-EurzYL1BtBVcS3Mzic-2">
          <mxGeometry x="297.5" y="960" width="60" height="30" as="geometry" />
        </mxCell>
        <mxCell id="5-EurzYL1BtBVcS3Mzic-113" value="" style="rounded=0;whiteSpace=wrap;html=1;fillColor=#e1d5e7;strokeColor=#9673a6;" vertex="1" parent="5-EurzYL1BtBVcS3Mzic-2">
          <mxGeometry x="30" y="390" width="697.5" height="80" as="geometry" />
        </mxCell>
        <mxCell id="5-EurzYL1BtBVcS3Mzic-84" value="" style="ellipse;whiteSpace=wrap;html=1;aspect=fixed;fillColor=#f8cecc;strokeColor=#b85450;" vertex="1" parent="5-EurzYL1BtBVcS3Mzic-2">
          <mxGeometry x="40" y="390" width="80" height="80" as="geometry" />
        </mxCell>
        <mxCell id="5-EurzYL1BtBVcS3Mzic-114" value="Some randome text about something I jus forgot" style="text;html=1;strokeColor=none;fillColor=none;align=left;verticalAlign=middle;whiteSpace=wrap;rounded=0;" vertex="1" parent="5-EurzYL1BtBVcS3Mzic-2">
          <mxGeometry x="295" y="910" width="425" height="30" as="geometry" />
        </mxCell>
        <mxCell id="5-EurzYL1BtBVcS3Mzic-115" value="Description" style="text;html=1;strokeColor=none;fillColor=none;align=center;verticalAlign=middle;whiteSpace=wrap;rounded=0;" vertex="1" parent="5-EurzYL1BtBVcS3Mzic-2">
          <mxGeometry x="300" y="880" width="60" height="30" as="geometry" />
        </mxCell>
        <mxCell id="5-EurzYL1BtBVcS3Mzic-116" value="Desafio" style="text;html=1;strokeColor=none;fillColor=none;align=center;verticalAlign=middle;whiteSpace=wrap;rounded=0;" vertex="1" parent="5-EurzYL1BtBVcS3Mzic-2">
          <mxGeometry x="295" y="840" width="60" height="30" as="geometry" />
        </mxCell>
        <mxCell id="5-EurzYL1BtBVcS3Mzic-117" value="" style="rounded=0;whiteSpace=wrap;html=1;fillColor=#f5f5f5;fontColor=#333333;strokeColor=#666666;" vertex="1" parent="5-EurzYL1BtBVcS3Mzic-2">
          <mxGeometry x="18.75" y="1405" width="730" height="250" as="geometry" />
        </mxCell>
        <mxCell id="5-EurzYL1BtBVcS3Mzic-118" value="" style="rounded=0;whiteSpace=wrap;html=1;fillColor=#e1d5e7;strokeColor=#9673a6;" vertex="1" parent="5-EurzYL1BtBVcS3Mzic-2">
          <mxGeometry x="38.75" y="1435" width="695" height="210" as="geometry" />
        </mxCell>
        <mxCell id="5-EurzYL1BtBVcS3Mzic-119" value="Details" style="text;html=1;strokeColor=none;fillColor=none;align=center;verticalAlign=middle;whiteSpace=wrap;rounded=0;" vertex="1" parent="5-EurzYL1BtBVcS3Mzic-2">
          <mxGeometry x="33.75" y="1405" width="100" height="30" as="geometry" />
        </mxCell>
        <mxCell id="5-EurzYL1BtBVcS3Mzic-120" value="" style="rounded=0;whiteSpace=wrap;html=1;fillColor=#ffe6cc;strokeColor=#d79b00;" vertex="1" parent="5-EurzYL1BtBVcS3Mzic-2">
          <mxGeometry x="48.75" y="1440" width="200" height="200" as="geometry" />
        </mxCell>
        <mxCell id="5-EurzYL1BtBVcS3Mzic-124" value="" style="rounded=0;whiteSpace=wrap;html=1;fillColor=#f5f5f5;fontColor=#333333;strokeColor=#666666;" vertex="1" parent="5-EurzYL1BtBVcS3Mzic-2">
          <mxGeometry x="18.75" y="1120" width="730" height="250" as="geometry" />
        </mxCell>
        <mxCell id="5-EurzYL1BtBVcS3Mzic-125" value="" style="rounded=0;whiteSpace=wrap;html=1;fillColor=#e1d5e7;strokeColor=#9673a6;" vertex="1" parent="5-EurzYL1BtBVcS3Mzic-2">
          <mxGeometry x="38.75" y="1150" width="695" height="210" as="geometry" />
        </mxCell>
        <mxCell id="5-EurzYL1BtBVcS3Mzic-126" value="Criterios y registro" style="text;html=1;strokeColor=none;fillColor=none;align=center;verticalAlign=middle;whiteSpace=wrap;rounded=0;" vertex="1" parent="5-EurzYL1BtBVcS3Mzic-2">
          <mxGeometry x="33.75" y="1120" width="100" height="30" as="geometry" />
        </mxCell>
        <mxCell id="5-EurzYL1BtBVcS3Mzic-127" value="" style="rounded=0;whiteSpace=wrap;html=1;fillColor=#f5f5f5;fontColor=#333333;strokeColor=#666666;" vertex="1" parent="5-EurzYL1BtBVcS3Mzic-2">
          <mxGeometry x="48.75" y="1155" width="200" height="200" as="geometry" />
        </mxCell>
        <mxCell id="5-EurzYL1BtBVcS3Mzic-128" value="" style="ellipse;whiteSpace=wrap;html=1;aspect=fixed;fillColor=#dae8fc;strokeColor=#6c8ebf;" vertex="1" parent="5-EurzYL1BtBVcS3Mzic-2">
          <mxGeometry x="52.5" y="1160" width="20" height="20" as="geometry" />
        </mxCell>
        <mxCell id="5-EurzYL1BtBVcS3Mzic-129" value="Title" style="text;html=1;strokeColor=none;fillColor=none;align=center;verticalAlign=middle;whiteSpace=wrap;rounded=0;" vertex="1" parent="5-EurzYL1BtBVcS3Mzic-2">
          <mxGeometry x="57.5" y="1190" width="62.5" height="30" as="geometry" />
        </mxCell>
        <mxCell id="5-EurzYL1BtBVcS3Mzic-130" value="Some random text about this" style="text;html=1;strokeColor=none;fillColor=none;align=center;verticalAlign=middle;whiteSpace=wrap;rounded=0;" vertex="1" parent="5-EurzYL1BtBVcS3Mzic-2">
          <mxGeometry x="57.5" y="1190" width="180" height="70" as="geometry" />
        </mxCell>
        <mxCell id="5-EurzYL1BtBVcS3Mzic-131" value="Some random text about this" style="text;html=1;strokeColor=none;fillColor=none;align=center;verticalAlign=middle;whiteSpace=wrap;rounded=0;" vertex="1" parent="5-EurzYL1BtBVcS3Mzic-2">
          <mxGeometry x="53.75" y="1460" width="180" height="70" as="geometry" />
        </mxCell>
        <mxCell id="5-EurzYL1BtBVcS3Mzic-132" value="Some random text about this" style="text;html=1;strokeColor=none;fillColor=none;align=center;verticalAlign=middle;whiteSpace=wrap;rounded=0;" vertex="1" parent="5-EurzYL1BtBVcS3Mzic-2">
          <mxGeometry x="52.5" y="1505" width="180" height="70" as="geometry" />
        </mxCell>
        <mxCell id="5-EurzYL1BtBVcS3Mzic-137" value="" style="rounded=0;whiteSpace=wrap;html=1;fillColor=#ffe6cc;strokeColor=#d79b00;" vertex="1" parent="5-EurzYL1BtBVcS3Mzic-2">
          <mxGeometry x="82.5" y="1165" width="120" height="10" as="geometry" />
        </mxCell>
        <mxCell id="5-EurzYL1BtBVcS3Mzic-138" value="Some random text about this" style="text;html=1;strokeColor=none;fillColor=none;align=center;verticalAlign=middle;whiteSpace=wrap;rounded=0;" vertex="1" parent="5-EurzYL1BtBVcS3Mzic-2">
          <mxGeometry x="57.5" y="1270" width="180" height="70" as="geometry" />
        </mxCell>
        <mxCell id="5-EurzYL1BtBVcS3Mzic-151" value="" style="shape=process;whiteSpace=wrap;html=1;backgroundOutline=1;fillColor=#ffe6cc;strokeColor=#d79b00;" vertex="1" parent="5-EurzYL1BtBVcS3Mzic-2">
          <mxGeometry x="20" y="540" width="120" height="240" as="geometry" />
        </mxCell>
        <mxCell id="5-EurzYL1BtBVcS3Mzic-10" value="Maps" style="swimlane;whiteSpace=wrap;html=1;" vertex="1" collapsed="1" parent="1">
          <mxGeometry x="40" y="40" width="70" height="30" as="geometry">
            <mxRectangle x="70" y="200" width="480" height="240" as="alternateBounds" />
          </mxGeometry>
        </mxCell>
        <mxCell id="5-EurzYL1BtBVcS3Mzic-5" value="1" style="ellipse;whiteSpace=wrap;html=1;aspect=fixed;fillColor=#f5f5f5;strokeColor=#666666;fontColor=#333333;" vertex="1" parent="5-EurzYL1BtBVcS3Mzic-10">
          <mxGeometry x="40" y="80" width="40" height="40" as="geometry" />
        </mxCell>
        <mxCell id="5-EurzYL1BtBVcS3Mzic-6" value="Wrapper" style="text;html=1;strokeColor=none;fillColor=none;align=center;verticalAlign=middle;whiteSpace=wrap;rounded=0;" vertex="1" parent="5-EurzYL1BtBVcS3Mzic-10">
          <mxGeometry x="90" y="85" width="60" height="30" as="geometry" />
        </mxCell>
        <mxCell id="5-EurzYL1BtBVcS3Mzic-7" value="1" style="ellipse;whiteSpace=wrap;html=1;aspect=fixed;fillColor=#e1d5e7;strokeColor=#9673a6;" vertex="1" parent="5-EurzYL1BtBVcS3Mzic-10">
          <mxGeometry x="40" y="160" width="40" height="40" as="geometry" />
        </mxCell>
        <mxCell id="5-EurzYL1BtBVcS3Mzic-8" value="Repliers" style="text;html=1;strokeColor=none;fillColor=none;align=center;verticalAlign=middle;whiteSpace=wrap;rounded=0;" vertex="1" parent="5-EurzYL1BtBVcS3Mzic-10">
          <mxGeometry x="90" y="165" width="60" height="30" as="geometry" />
        </mxCell>
        <mxCell id="5-EurzYL1BtBVcS3Mzic-19" value="3" style="ellipse;whiteSpace=wrap;html=1;aspect=fixed;fillColor=#f8cecc;strokeColor=#b85450;" vertex="1" parent="5-EurzYL1BtBVcS3Mzic-10">
          <mxGeometry x="200" y="80" width="40" height="40" as="geometry" />
        </mxCell>
        <mxCell id="5-EurzYL1BtBVcS3Mzic-20" value="Navigation" style="text;html=1;strokeColor=none;fillColor=none;align=center;verticalAlign=middle;whiteSpace=wrap;rounded=0;" vertex="1" parent="5-EurzYL1BtBVcS3Mzic-10">
          <mxGeometry x="250" y="85" width="60" height="30" as="geometry" />
        </mxCell>
        <mxCell id="5-EurzYL1BtBVcS3Mzic-21" value="6" style="ellipse;whiteSpace=wrap;html=1;aspect=fixed;fillColor=#dae8fc;strokeColor=#6c8ebf;" vertex="1" parent="5-EurzYL1BtBVcS3Mzic-10">
          <mxGeometry x="360" y="80" width="40" height="40" as="geometry" />
        </mxCell>
        <mxCell id="5-EurzYL1BtBVcS3Mzic-22" value="Img" style="text;html=1;strokeColor=none;fillColor=none;align=center;verticalAlign=middle;whiteSpace=wrap;rounded=0;" vertex="1" parent="5-EurzYL1BtBVcS3Mzic-10">
          <mxGeometry x="410" y="85" width="60" height="30" as="geometry" />
        </mxCell>
        <mxCell id="5-EurzYL1BtBVcS3Mzic-43" value="4" style="ellipse;whiteSpace=wrap;html=1;aspect=fixed;fillColor=#ffe6cc;strokeColor=#d79b00;" vertex="1" parent="5-EurzYL1BtBVcS3Mzic-10">
          <mxGeometry x="200" y="160" width="40" height="40" as="geometry" />
        </mxCell>
        <mxCell id="5-EurzYL1BtBVcS3Mzic-44" value="Decoration" style="text;html=1;strokeColor=none;fillColor=none;align=center;verticalAlign=middle;whiteSpace=wrap;rounded=0;" vertex="1" parent="5-EurzYL1BtBVcS3Mzic-10">
          <mxGeometry x="250" y="165" width="60" height="30" as="geometry" />
        </mxCell>
      </root>
    </mxGraphModel>
  </diagram>
</mxfile>
